<svg width="200" height="200" viewBox="0 0 200 200" fill="none" xmlns="http://www.w3.org/2000/svg">
<path d="M6.788 95.414C8.888 95.372 10.379 94.994 11.261 94.28C12.185 93.566 12.647 92.495 12.647 91.067C12.647 90.059 12.437 88.043 12.017 85.019C11.807 83.717 11.618 82.373 11.45 80.987C11.282 79.559 11.198 78.299 11.198 77.207C11.198 73.343 12.374 70.34 14.726 68.198C17.12 66.056 20.333 64.985 24.365 64.985H29.027V75.002H26.759C25.415 75.002 24.449 75.296 23.861 75.884C23.273 76.472 22.979 77.354 22.979 78.53C22.979 79.328 23.147 81.197 23.483 84.137C23.861 87.917 24.05 90.374 24.05 91.508C24.05 93.902 23.483 95.876 22.349 97.43C21.257 98.984 19.577 99.971 17.309 100.391V100.517C19.577 100.937 21.257 101.924 22.349 103.478C23.483 105.032 24.05 107.006 24.05 109.4C24.05 110.534 23.861 112.991 23.483 116.771C23.147 119.711 22.979 121.601 22.979 122.441C22.979 123.575 23.273 124.436 23.861 125.024C24.449 125.612 25.415 125.906 26.759 125.906H29.027V135.923H24.365C20.333 135.923 17.12 134.852 14.726 132.71C12.374 130.568 11.198 127.565 11.198 123.701C11.198 122.609 11.282 121.37 11.45 119.984C11.618 118.556 11.807 117.191 12.017 115.889C12.437 112.865 12.647 110.87 12.647 109.904C12.647 107.048 10.694 105.557 6.788 105.431V95.414ZM53.2938 122.441C48.1278 122.441 43.8858 121.223 40.5678 118.787C37.2498 116.309 35.4648 112.781 35.2128 108.203H48.3798C48.5058 109.757 48.9678 110.891 49.7658 111.605C50.5638 112.319 51.5928 112.676 52.8528 112.676C53.9868 112.676 54.9108 112.403 55.6248 111.857C56.3808 111.269 56.7588 110.471 56.7588 109.463C56.7588 108.161 56.1498 107.153 54.9318 106.439C53.7138 105.725 51.7398 104.927 49.0098 104.045C46.1118 103.079 43.7598 102.155 41.9538 101.273C40.1898 100.349 38.6358 99.026 37.2918 97.304C35.9898 95.54 35.3388 93.251 35.3388 90.437C35.3388 87.581 36.0528 85.145 37.4808 83.129C38.9088 81.071 40.8828 79.517 43.4028 78.467C45.9228 77.417 48.7788 76.892 51.9708 76.892C57.1368 76.892 61.2528 78.11 64.3188 80.546C67.4268 82.94 69.0858 86.321 69.2958 90.689H55.8768C55.8348 89.345 55.4148 88.337 54.6168 87.665C53.8608 86.993 52.8738 86.657 51.6558 86.657C50.7318 86.657 49.9758 86.93 49.3878 87.476C48.7998 88.022 48.5058 88.799 48.5058 89.807C48.5058 90.647 48.8208 91.382 49.4508 92.012C50.1228 92.6 50.9418 93.125 51.9078 93.587C52.8738 94.007 54.3018 94.553 56.1918 95.225C59.0058 96.191 61.3158 97.157 63.1218 98.123C64.9698 99.047 66.5448 100.37 67.8468 102.092C69.1908 103.772 69.8628 105.914 69.8628 108.518C69.8628 111.164 69.1908 113.537 67.8468 115.637C66.5448 117.737 64.6338 119.396 62.1138 120.614C59.6358 121.832 56.6958 122.441 53.2938 122.441ZM74.0912 99.698C74.0912 95.33 74.9942 91.445 76.8002 88.043C78.6482 84.599 81.2522 81.932 84.6122 80.042C87.9722 78.11 91.8362 77.144 96.2042 77.144C101.748 77.144 106.41 78.635 110.19 81.617C113.97 84.557 116.406 88.568 117.498 93.65H104.205C103.407 91.97 102.294 90.689 100.866 89.807C99.4802 88.925 97.8632 88.484 96.0152 88.484C93.1592 88.484 90.8702 89.513 89.1482 91.571C87.4682 93.587 86.6282 96.296 86.6282 99.698C86.6282 103.142 87.4682 105.893 89.1482 107.951C90.8702 109.967 93.1592 110.975 96.0152 110.975C97.8632 110.975 99.4802 110.534 100.866 109.652C102.294 108.77 103.407 107.489 104.205 105.809H117.498C116.406 110.891 113.97 114.923 110.19 117.905C106.41 120.845 101.748 122.315 96.2042 122.315C91.8362 122.315 87.9722 121.37 84.6122 119.48C81.2522 117.548 78.6482 114.881 76.8002 111.479C74.9942 108.035 74.0912 104.108 74.0912 99.698ZM140.922 77.585C145.584 77.585 149.658 78.53 153.144 80.42C156.672 82.268 159.381 84.872 161.271 88.232C163.161 91.592 164.106 95.435 164.106 99.761C164.106 104.045 163.14 107.867 161.208 111.227C159.318 114.587 156.609 117.233 153.081 119.165C149.595 121.055 145.542 122 140.922 122H123.345V77.585H140.922ZM139.977 111.101C143.589 111.101 146.424 110.114 148.482 108.14C150.54 106.166 151.569 103.373 151.569 99.761C151.569 96.107 150.54 93.293 148.482 91.319C146.424 89.303 143.589 88.295 139.977 88.295H135.693V111.101H139.977ZM192.353 105.431C188.447 105.557 186.494 107.048 186.494 109.904C186.494 110.87 186.704 112.865 187.124 115.889C187.334 117.191 187.523 118.556 187.691 119.984C187.859 121.37 187.943 122.609 187.943 123.701C187.943 127.565 186.746 130.568 184.352 132.71C182 134.852 178.808 135.923 174.776 135.923H170.114V125.906H172.382C173.726 125.906 174.692 125.612 175.28 125.024C175.868 124.436 176.162 123.575 176.162 122.441C176.162 121.601 175.994 119.711 175.658 116.771C175.28 112.991 175.091 110.534 175.091 109.4C175.091 107.006 175.637 105.032 176.729 103.478C177.863 101.924 179.564 100.937 181.832 100.517V100.391C179.564 99.971 177.863 98.984 176.729 97.43C175.637 95.876 175.091 93.902 175.091 91.508C175.091 90.374 175.28 87.917 175.658 84.137C175.994 81.197 176.162 79.328 176.162 78.53C176.162 77.354 175.868 76.472 175.28 75.884C174.692 75.296 173.726 75.002 172.382 75.002H170.114V64.985H174.776C178.808 64.985 182 66.056 184.352 68.198C186.746 70.34 187.943 73.343 187.943 77.207C187.943 78.299 187.859 79.559 187.691 80.987C187.523 82.373 187.334 83.717 187.124 85.019C186.704 88.043 186.494 90.059 186.494 91.067C186.494 92.495 186.935 93.566 187.817 94.28C188.741 94.994 190.253 95.372 192.353 95.414V105.431Z" fill="white"/>
</svg>
